# xmcd CD database file
#
# Track frame offsets:
#	150
#	10132
#	21182
#	30462
#	37867
#	47212
#	59612
#	71415
#	83987
#	92979
#	102555
#	118862
#	132095
#	142162
#	154857
#	165077
#	175755
#	185907
#	195815
#	209330
#	221017
#	235280
#	251397
#
# Disc length: 3568 seconds
#
# Revision: 0
# Processed by: cddbd v1.5.2PL0 Copyright (c) Steve Scherf et al.
# Submitted via: jetAudio 7
#
DISCID=410dee17
DTITLE=The Beach Boys - All Time Greatest Hits Good Vibrations
DYEAR=1995
DGENRE=Rock and Roll
TTITLE0=I Get Around
TTITLE1=Surfin' U.S.A.
TTITLE2=Fun Fun Fun
TTITLE3=Little Deuce Coupe
TTITLE4=Surfin' Safari
TTITLE5=Help Me Rhonda
TTITLE6=California Girls
TTITLE7=Don't Worry Baby
TTITLE8=When I Grow Up (To Be A Man)
TTITLE9=Barbara-Ann
TTITLE10=Good Vibrations
TTITLE11=Sloop John B.
TTITLE12=You're So Good To Me
TTITLE13=God Only Knows
TTITLE14=Then I Kissed Her
TTITLE15=Wouldn't It Be Nice
TTITLE16=Do It Again
TTITLE17=Darlin'
TTITLE18=Cotton Fields
TTITLE19=I Can Hear Music
TTITLE20=California Dreamin'
TTITLE21=Still Cruisin'
TTITLE22=Kokomo
EXTD=
EXTT0=
EXTT1=
EXTT2=
EXTT3=
EXTT4=
EXTT5=
EXTT6=
EXTT7=
EXTT8=
EXTT9=
EXTT10=
EXTT11=
EXTT12=
EXTT13=
EXTT14=
EXTT15=
EXTT16=
EXTT17=
EXTT18=
EXTT19=
EXTT20=
EXTT21=
EXTT22=
PLAYORDER=
